# xmcd CD database file
#
# Track frame offsets:
#	150
#	14550
#	34350
#	56400
#	86850
#	113250
#	130200
#	160800
#	183300
#	202050
#	213300
#	222600
#	235050
#	243900
#	257250
#	268200
#	280500
#	289800
#	299700
#	309300
#	322200
#
# Disc length: 4456 seconds
#
# Revision: 0
# Processed by: cddbd v1.5.2PL0 Copyright (c) Steve Scherf et al.
# Submitted via: CDex 1.50Beta7
#
DISCID=44116615
DTITLE=J. J. Johnson - The Complete '60s Bigband Recordings- Disc 1
DYEAR=2007
DGENRE=Jazz
TTITLE0=Bemsha Swing
TTITLE1=So What
TTITLE2=My Little Suede Shoes
TTITLE3=Stratusphunk
TTITLE4=Stolen Moments
TTITLE5=Swing Spring
TTITLE6=Train Samba
TTITLE7=Winters Waif
TTITLE8=El Camino Real
TTITLE9=Agua De Beber
TTITLE10=Pense A Moi
TTITLE11=How Insensitive
TTITLE12=I'm All Smiles
TTITLE13=G'won Train
TTITLE14=Feeling Good
TTITLE15=The Seventh Son
TTITLE16=In The Name Of Love
TTITLE17=No Particular Place To Go
TTITLE18=008
TTITLE19=Billy Boy
TTITLE20=Incidental Blues
EXTD=YEAR: 2007
EXTT0=
EXTT1=
EXTT2=
EXTT3=
EXTT4=
EXTT5=
EXTT6=
EXTT7=
EXTT8=
EXTT9=
EXTT10=
EXTT11=
EXTT12=
EXTT13=
EXTT14=
EXTT15=
EXTT16=
EXTT17=
EXTT18=
EXTT19=
EXTT20=
PLAYORDER=
